/* XPM */
static char * C:\ie\ark\programs\maya\ui\icons\cameraFocus_xpm[] = {
"32 32 231 2",
"  	c None",
". 	c #C3C4C8",
"+ 	c #C2C3C5",
"@ 	c #C3C4C6",
"# 	c #C4C5C7",
"$ 	c #C5C6C8",
"% 	c #C6C7C9",
"& 	c #C7C8CA",
"* 	c #C8C9CB",
"= 	c #C4C5C8",
"- 	c #C2C3C4",
"; 	c #C9CACC",
"> 	c #CACBCD",
", 	c #CBCCCE",
"' 	c #CECFD1",
") 	c #CDCED0",
"! 	c #CFD0D2",
"~ 	c #D0D1D3",
"{ 	c #D0D2D4",
"] 	c #CCCDCF",
"^ 	c #CDCDCF",
"/ 	c #C1C2C4",
"( 	c #AFB0B1",
"_ 	c #B2B3B5",
": 	c #B3B4B6",
"< 	c #B1B2B4",
"[ 	c #B3B3B5",
"} 	c #B4B5B6",
"| 	c #CFCFD1",
"1 	c #CECED0",
"2 	c #BABABC",
"3 	c #B3B4B5",
"4 	c #B2B3B4",
"5 	c #AFB0B2",
"6 	c #9FA0A1",
"7 	c #080808",
"8 	c #090909",
"9 	c #121212",
"0 	c #0C0C0C",
"a 	c #060606",
"b 	c #070707",
"c 	c #757577",
"d 	c #DBDCDE",
"e 	c #303031",
"f 	c #0A0A0A",
"g 	c #262627",
"h 	c #CFD0D3",
"i 	c #9D9E9F",
"j 	c #000000",
"k 	c #040404",
"l 	c #0F0F0F",
"m 	c #030303",
"n 	c #747475",
"o 	c #DDDEE0",
"p 	c #D1D2D4",
"q 	c #D2D3D5",
"r 	c #2E2E2F",
"s 	c #050505",
"t 	c #1D1D1E",
"u 	c #9E9FA1",
"v 	c #020202",
"w 	c #929294",
"x 	c #B6B6B8",
"y 	c #B4B5B7",
"z 	c #D3D4D6",
"A 	c #B2B2B4",
"B 	c #525252",
"C 	c #212121",
"D 	c #D1D2D3",
"E 	c #B0B0B2",
"F 	c #DADBDD",
"G 	c #D4D5D7",
"H 	c #D8D9DB",
"I 	c #D7D8DA",
"J 	c #D6D7D9",
"K 	c #D5D6D8",
"L 	c #DFE0E2",
"M 	c #626263",
"N 	c #D1D2D5",
"O 	c #A0A0A2",
"P 	c #ABACAE",
"Q 	c #606060",
"R 	c #212222",
"S 	c #A0A1A2",
"T 	c #ACADAF",
"U 	c #606061",
"V 	c #212122",
"W 	c #A1A2A3",
"X 	c #D6D8DA",
"Y 	c #DCDDDF",
"Z 	c #9E9FA0",
"` 	c #D9DADC",
" .	c #D7E0E1",
"..	c #D7E1E2",
"+.	c #D8DCDD",
"@.	c #D7E3E4",
"#.	c #D7DBDD",
"$.	c #DDDEE1",
"%.	c #595A5A",
"&.	c #161616",
"*.	c #B7B7B9",
"=.	c #646566",
"-.	c #B9BABC",
";.	c #D7E0E2",
">.	c #DEB3B5",
",.	c #E9565B",
"'.	c #EA4246",
").	c #E4797D",
"!.	c #DAD6D7",
"~.	c #D8DDDF",
"{.	c #D7D9DB",
"].	c #979899",
"^.	c #757677",
"/.	c #D0D0D3",
"(.	c #D5DDDF",
"_.	c #DBB9BC",
":.	c #EC2429",
"<.	c #ED1118",
"[.	c #EA1920",
"}.	c #E41D23",
"|.	c #E2666A",
"1.	c #D7DDDF",
"2.	c #D3D5D7",
"3.	c #CCCCCE",
"4.	c #D4D4D6",
"5.	c #D5D5D7",
"6.	c #D2DEE0",
"7.	c #DD868A",
"8.	c #E82F34",
"9.	c #E63D42",
"0.	c #E64448",
"a.	c #E3474B",
"b.	c #E3393E",
"c.	c #D5BBBD",
"d.	c #D3D9DB",
"e.	c #D0D0D2",
"f.	c #D1D1D3",
"g.	c #D1D3D5",
"h.	c #D8D8DA",
"i.	c #D6E1E2",
"j.	c #DE8A8E",
"k.	c #E83338",
"l.	c #E54145",
"m.	c #E74D51",
"n.	c #E34549",
"o.	c #DF3238",
"p.	c #D6BCBE",
"q.	c #D5DCDE",
"r.	c #D2D3D6",
"s.	c #D3DCDD",
"t.	c #DAB3B6",
"u.	c #EB252B",
"v.	c #EB1E24",
"w.	c #EB2429",
"x.	c #EC141B",
"y.	c #E0595D",
"z.	c #D2D6D8",
"A.	c #D4D6D8",
"B.	c #BBBBBD",
"C.	c #79797A",
"D.	c #79797B",
"E.	c #BFBFC1",
"F.	c #D8E0E2",
"G.	c #E0A2A5",
"H.	c #EA4044",
"I.	c #ED2E33",
"J.	c #E76468",
"K.	c #DACDCF",
"L.	c #D6DBDD",
"M.	c #78787A",
"N.	c #8F8F91",
"O.	c #D3D4D7",
"P.	c #9F9FA1",
"Q.	c #ACACAE",
"R.	c #D7E1E3",
"S.	c #D8DADB",
"T.	c #DAD2D3",
"U.	c #3E3E3E",
"V.	c #2E2E2E",
"W.	c #D7D8DB",
"X.	c #D6D9DB",
"Y.	c #D6DADC",
"Z.	c #454546",
"`.	c #363636",
" +	c #A0A1A3",
".+	c #454545",
"++	c #D5D7D9",
"@+	c #444545",
"#+	c #AEAEB1",
"$+	c #D6D7DA",
"%+	c #464646",
"&+	c #353636",
"*+	c #9D9D9E",
"=+	c #C4C4C6",
"-+	c #C0C1C3",
";+	c #BFC0C1",
">+	c #BFC0C2",
",+	c #BEBFC1",
"'+	c #C5C5C7",
")+	c #3F3F40",
"!+	c #171717",
"~+	c #101010",
"{+	c #0B0B0C",
"]+	c #787879",
"^+	c #272728",
"/+	c #0B0B0B",
"(+	c #0D0D0D",
"_+	c #030302",
":+	c #323232",
"<+	c #9E9EA0",
"[+	c #717274",
"}+	c #C8C8CA",
"|+	c #1D1D1D",
"1+	c #363637",
"2+	c #C7C8C9",
"3+	c #A6A7A8",
"4+	c #A9AAAC",
"5+	c #ABACAD",
"6+	c #A8A9AA",
"7+	c #A9AAAB",
"8+	c #AAABAC",
"9+	c #ABABAD",
"0+	c #BEBEC0",
"a+	c #AAABAD",
"b+	c #AAAAAC",
"c+	c #A9A9AB",
"d+	c #A6A7A9",
"e+	c #AEAFB1",
"f+	c #D0D1D4",
"g+	c #C3C4C7",
"h+	c #C3C4C5",
". + + @ # # $ $ % % & * * * * * * * * * * * & % % $ # # # @ + = ",
"- $ $ # # $ % & & * * ; ; ; ; ; ; ; ; ; ; * * * & & $ $ # # % @ ",
"@ # & % $ % & * * ; > > > , , , , , , , > > ; ; * * & % % & # @ ",
"# # % ' ) ) ' ' ! ~ { ' ] ] ^ ^ ^ ^ ] ] ] ~ ~ ~ ! ' ) ) ! , # # ",
"# % / ( _ : < [ : } : + | ) ) 1 1 ) ) 1 ) 2 : : 3 4 3 : 5 _ $ $ ",
"$ ' 6 7 8 9 0 a a b a c d ! ! ! ! ! ! ~ ! e a a a 8 9 f 7 g + * ",
"% h i j j k l 7 k k m n o ~ ~ p p ~ ~ q ~ r m k s l a j j t @ ; ",
"& ~ u j v w x y _ _ _ @ z p p q q q p p p 2 4 _ } A 2 B j C # > ",
"* D 6 j v E F G H I I G p q z z z z z q q J H H K G L M j C $ > ",
"* N O j v P K ~ ~ z q q z G G K K G G G z z z p ~ ! F Q j R % , ",
"; q S j v T J p p q G G K K K K K K K K K K z p p ~ d U j V & ] ",
"; z W j v T I p p z G I J K J X X J J J I K z z p p Y U j C & ] ",
"> G Z j j P ` p q G K K H I  ...+.@.#.H J K K z q p $.%.j &.* ) ",
"> h *.=.=.-.p p z G G J I ;.>.,.'.).!.~.J G K G z q {.].=.^.> ] ",
"> , /.I G ~ > ' G p | K (._.:.<.[.}.|.1.2.' G z ~ ) ! K F H ] , ",
"> ] ^ % p ! 3.p ! 4.5.z 6.7.8.9.0.a.b.c.d.K e.f.g.| ' ' > ] ] , ",
"> ] ^ % p , & G ! p h.p i.j.k.l.m.n.o.p.q.p 5.p q ) ' ) , 3.^ , ",
"> , e.I r.> % ~ q z z 4.s.t.u.v.w.x.y.z.A.z G z ~ ~ ' J ` J ] , ",
"> ! B.C.D.E.q q z K J K K F.G.H.I.J.K.L.I J K G z q K ].M.N.! , ",
"> O.P.j j Q.` p z G K K h.I R.S.T.R.1.H J K K z q p F U.j V.z , ",
"; z W j v T W.p p z G I J J J X.Y.X J J I K G z p p ` Z.j `.q , ",
"; q  +j v T I p p q K K K K K K K K K K K J z p p p H .+j `.q > ",
"* N O j v P ++~ p z q q z G G K K G G G z z z q ~ ~ W.@+j `.p ; ",
"* p 6 j v #+S.z J K K z p q z z z z z q q K J $+G q d %+j &+~ ; ",
"& ~ u j v *+=+-+;+>+>+; q p q q q q p p ~ + >+>+-+,+'+)+j &+! * ",
"% h i j j f !+~+0 0 {+]+Y ~ p p p p ~ z ; ^+/+0 (+!+l _+j :+' & ",
"$ ' <+m k /+s j j j j [+d ! ! ! ! ! ! p }+|+j j j v 0 s m 1+) % ",
"# 2+>+3+4+5+6+7+8+9+9+0+e.1 1 1 1 1 ) ' 3.E a+a+b+c+8+a+d+e+& $ ",
"# # & ! ! ' ! ~ f+p q ! ] ^ ^ ^ ^ ^ ] ] ] q q p ~ ! ' ' ~ , # # ",
"@ # & % $ & & * ; ; ; > , , , 3.3.3., , , > > ; * * & % % & $ @ ",
"+ $ $ # # $ % & & * * ; ; > > > > > > > ; ; * * * & % $ # # % @ ",
"g+@ + # # # $ % % & & * * * * * * * * * * & & & % $ # # # @ h+# "};
