/* XPM */
static char * C:\ie\ark\Maya\ui\icons\caretaker_xpm[] = {
"32 32 97 2",
"  	c None",
". 	c #FFFFFF",
"+ 	c #000000",
"@ 	c #525252",
"# 	c #505050",
"$ 	c #4E4E4E",
"% 	c #5F5F5F",
"& 	c #DBDBDB",
"* 	c #F9F9F9",
"= 	c #7A7A7A",
"- 	c #4A4A4A",
"; 	c #616161",
"> 	c #E2E2E2",
", 	c #6C6C6C",
"' 	c #484848",
") 	c #818181",
"! 	c #BEBEBE",
"~ 	c #808080",
"{ 	c #454545",
"] 	c #464646",
"^ 	c #4C4C4C",
"/ 	c #414141",
"( 	c #8B8B8B",
"_ 	c #898989",
": 	c #949494",
"< 	c #5D5D5D",
"[ 	c #ABABAB",
"} 	c #D5D5D5",
"| 	c #D7D7D7",
"1 	c #ADADAD",
"2 	c #656565",
"3 	c #3D3D3D",
"4 	c #E8E8E8",
"5 	c #C0C0C0",
"6 	c #F4F4F4",
"7 	c #A2A2A2",
"8 	c #D3D3D3",
"9 	c #393939",
"0 	c #EAEAEA",
"a 	c #C2C2C2",
"b 	c #F7F7F7",
"c 	c #7C7C7C",
"d 	c #3B3B3B",
"e 	c #767676",
"f 	c #FDFDFD",
"g 	c #353535",
"h 	c #D9D9D9",
"i 	c #6B6B6B",
"j 	c #A7A7A7",
"k 	c #313131",
"l 	c #BABABA",
"m 	c #CCCCCC",
"n 	c #333333",
"o 	c #FBFBFB",
"p 	c #F5F5F5",
"q 	c #787878",
"r 	c #2C2C2C",
"s 	c #B5B5B5",
"t 	c #676767",
"u 	c #919191",
"v 	c #373737",
"w 	c #8F8F8F",
"x 	c #282828",
"y 	c #989898",
"z 	c #9A9A9A",
"A 	c #DDDDDD",
"B 	c #9C9C9C",
"C 	c #242424",
"D 	c #303030",
"E 	c #A0A0A0",
"F 	c #434343",
"G 	c #2E2E2E",
"H 	c #202020",
"I 	c #B9B9B9",
"J 	c #595959",
"K 	c #9E9E9E",
"L 	c #7E7E7E",
"M 	c #1D1D1D",
"N 	c #D1D1D1",
"O 	c #1E1E1E",
"P 	c #545454",
"Q 	c #B1B1B1",
"R 	c #3F3F3F",
"S 	c #C4C4C4",
"T 	c #191919",
"U 	c #1B1B1B",
"V 	c #E4E4E4",
"W 	c #171717",
"X 	c #A9A9A9",
"Y 	c #A6A6A6",
"Z 	c #AFAFAF",
"` 	c #838383",
" .	c #262626",
"..	c #C8C8C8",
"+.	c #131313",
"@.	c #111111",
"#.	c #0F0F0F",
"                                                                ",
"                                                                ",
"                                                                ",
"                                                                ",
"        . . . . . . . . . . . . . . . . . . . . . . . .         ",
"        . + + + + + + + + + + + + + + + + + + + + + + .         ",
"        . @ @ @ @ @ @ @ @ @ @ @ @ @ @ @ @ @ @ @ @ @ @ .         ",
"        . # # # # # # # # # # # # # # # # # # # # # # .         ",
"        . $ $ $ % & . * = $ $ $ $ $ $ $ $ $ $ $ $ $ $ .         ",
"        . - - - ; & . > , - - - - - - - - - - - - - - .         ",
"        . ' ' ' - ) ! ~ ' ' ' ' ' ' ' ' ' ' ' ' ' ' ' .         ",
"        . { { { { { { { { { { { { { { { ] ^ { { { { { .         ",
"        . / / / ( _ : = ] / / / / / < [ } | 1 2 / / / .         ",
"        . 3 3 3 4 . . 5 ' 3 3 3 3 _ 4 6 7 5 . 8 3 3 3 .         ",
"        . 9 9 9 = 0 . a { 9 9 9 ) . b c d e f . 9 9 9 .         ",
"        . g g g # h . ! / g g i b b c g d j . h g g g .         ",
"        . k k k # & . l 3 k d 8 . m n n ~ o p q k k k .         ",
"        . r r r ^ & . s g r t o . u v w p h t r r r r .         ",
"        . x x x ' h . s k x y . o w z A B g x x x x x .         ",
"        . C C C { | . s D C E . . 1 _ F C C G v C C C .         ",
"        . H H H / | . I G H : . * J H H H k K L H H H .         ",
"        . M M M G N . [ O M P . . Q R G P S N P M M M .         ",
"        . T T T y b . 4 i C U E . . V h b } - T T T T .         ",
"        . W W W Q X Y Z ` r W  ._ 1 ..S y d W W W W W .         ",
"        . +.+.+.+.+.+.+.+.+.+.+.+.+.+.+.+.+.+.+.+.+.+..         ",
"        . @.@.@.@.@.@.@.@.@.@.@.@.@.@.@.@.@.@.@.@.@.@..         ",
"        . #.#.#.#.#.#.#.#.#.#.#.#.#.#.#.#.#.#.#.#.#.#..         ",
"        . . . . . . . . . . . . . . . . . . . . . . . .         ",
"                                                                ",
"                                                                ",
"                                                                ",
"                                                                "};
