/* XPM */
static char * C:\ie\ark\programs\maya\ui\icons\generic_xpm[] = {
"32 32 910 2",
"  	c None",
". 	c #F7F332",
"+ 	c #FAF52A",
"@ 	c #CFCA1C",
"# 	c #5E5B07",
"$ 	c #BFB400",
"% 	c #E7DB00",
"& 	c #141300",
"* 	c #575515",
"= 	c #FFFE28",
"- 	c #F8F31D",
"; 	c #F7F216",
"> 	c #F7F213",
", 	c #FAF410",
"' 	c #FFFA11",
") 	c #FFF914",
"! 	c #FFF917",
"~ 	c #F7F21C",
"{ 	c #F8F325",
"] 	c #F8F435",
"^ 	c #F7F22E",
"/ 	c #EEE402",
"( 	c #ECDF00",
"_ 	c #ECE000",
": 	c #EFE400",
"< 	c #C1BB0B",
"[ 	c #85831D",
"} 	c #B5B32B",
"| 	c #F1ED31",
"1 	c #F7F232",
"2 	c #F7F12F",
"3 	c #FAF52F",
"4 	c #F7F432",
"5 	c #F9F63C",
"6 	c #F9F63F",
"7 	c #F7F543",
"8 	c #F9F53D",
"9 	c #F8EF1D",
"0 	c #DAD005",
"a 	c #726E1B",
"b 	c #DBD525",
"c 	c #FAF51E",
"d 	c #F6F015",
"e 	c #F6EF0E",
"f 	c #FAF205",
"g 	c #E8E103",
"h 	c #696505",
"i 	c #4E4B07",
"j 	c #B9B40F",
"k 	c #FCF516",
"l 	c #F7F11E",
"m 	c #F7F12A",
"n 	c #F7F138",
"o 	c #EDE30E",
"p 	c #DBCC00",
"q 	c #E8DD05",
"r 	c #F4EE28",
"s 	c #FBF83C",
"t 	c #FFFC40",
"u 	c #FFFB3D",
"v 	c #FAF73B",
"w 	c #F9F63B",
"x 	c #FAF73C",
"y 	c #FAF63E",
"z 	c #F9F42A",
"A 	c #F9F52C",
"B 	c #F9F530",
"C 	c #FAF639",
"D 	c #FAF643",
"E 	c #F5F02A",
"F 	c #F6EE17",
"G 	c #F9F121",
"H 	c #F4EC17",
"I 	c #F5EB0E",
"J 	c #F5EB02",
"K 	c #FFF400",
"L 	c #B4AC03",
"M 	c #000001",
"N 	c #000000",
"O 	c #262405",
"P 	c #F3E912",
"Q 	c #F8EF18",
"R 	c #F5ED24",
"S 	c #F5EC1A",
"T 	c #E6DC03",
"U 	c #C4BC06",
"V 	c #F8F336",
"W 	c #FAF642",
"X 	c #FAF536",
"Y 	c #F9F52B",
"Z 	c #F9F52A",
"` 	c #F9F52E",
" .	c #F9F533",
"..	c #F9F41F",
"+.	c #F9F320",
"@.	c #F8F324",
"#.	c #F8F329",
"$.	c #F8F332",
"%.	c #F9F33D",
"&.	c #F6F014",
"*.	c #F0E506",
"=.	c #F7EA04",
"-.	c #F8EB02",
";.	c #F5E700",
">.	c #F8EA00",
",.	c #F0E301",
"'.	c #766F03",
").	c #373302",
"!.	c #898103",
"~.	c #F6EA06",
"{.	c #F3E705",
"].	c #F1E606",
"^.	c #EEE103",
"/.	c #F0E600",
"(.	c #F9F32E",
"_.	c #F9F227",
":.	c #F9F323",
"<.	c #F9F31F",
"[.	c #F8F31E",
"}.	c #F8F41E",
"|.	c #F8F422",
"1.	c #F8F426",
"2.	c #F8F316",
"3.	c #F8F217",
"4.	c #F8F21A",
"5.	c #F8F11F",
"6.	c #F8F126",
"7.	c #F8F032",
"8.	c #F9F132",
"9.	c #EEE403",
"0.	c #A99E00",
"a.	c #C4B701",
"b.	c #DFCE01",
"c.	c #E1D102",
"d.	c #C3B702",
"e.	c #838003",
"f.	c #D0C902",
"g.	c #FBF100",
"h.	c #EDE300",
"i.	c #E9DA00",
"j.	c #EADB00",
"k.	c #FDF405",
"l.	c #FEF630",
"m.	c #F7EF2D",
"n.	c #F8F024",
"o.	c #F8F11D",
"p.	c #F7F219",
"q.	c #F8F216",
"r.	c #F8F317",
"s.	c #F8F319",
"t.	c #F8F10C",
"u.	c #F8F00F",
"v.	c #FAF213",
"w.	c #FFF818",
"x.	c #FEF31F",
"y.	c #F7ED26",
"z.	c #F7EC35",
"A.	c #FBF11B",
"B.	c #898000",
"C.	c #2A2603",
"D.	c #2E3102",
"E.	c #303100",
"F.	c #2E1F01",
"G.	c #5B3407",
"H.	c #DC9D09",
"I.	c #F3B009",
"J.	c #ECB106",
"K.	c #E7BB01",
"L.	c #DFC400",
"M.	c #EDE700",
"N.	c #C3C010",
"O.	c #D4CB2B",
"P.	c #FAF024",
"Q.	c #F8ED1C",
"R.	c #F8EE16",
"S.	c #F8EF12",
"T.	c #F8F00E",
"U.	c #F8F00C",
"V.	c #F8F00B",
"W.	c #F8F10E",
"X.	c #F7EE00",
"Y.	c #F9EF02",
"Z.	c #F4E90C",
"`.	c #C1B812",
" +	c #DACF18",
".+	c #FDEF20",
"++	c #F6E72D",
"@+	c #F6E72E",
"#+	c #F0E602",
"$+	c #CBAF00",
"%+	c #CB8006",
"&+	c #DA5B1E",
"*+	c #F04E34",
"=+	c #FF513E",
"-+	c #FC4341",
";+	c #F93F43",
">+	c #F94341",
",+	c #F74A3C",
"'+	c #F65C2D",
")+	c #E98117",
"!+	c #321102",
"~+	c #222807",
"{+	c #F1E71E",
"]+	c #F9EA16",
"^+	c #F7E910",
"/+	c #F7EA07",
"(+	c #F6EB01",
"_+	c #F6EC00",
":+	c #F7ED00",
"<+	c #F7EE01",
"[+	c #F7F107",
"}+	c #F7F210",
"|+	c #F8ED00",
"1+	c #F8ED01",
"2+	c #595305",
"3+	c #131204",
"4+	c #B8A91A",
"5+	c #FDE822",
"6+	c #F2E30D",
"7+	c #F0B200",
"8+	c #F1541A",
"9+	c #FD403C",
"0+	c #FE3F45",
"a+	c #FC3C40",
"b+	c #F9393B",
"c+	c #F93739",
"d+	c #F93638",
"e+	c #F9393D",
"f+	c #FA3B43",
"g+	c #FB3C46",
"h+	c #EC3B38",
"i+	c #A63215",
"j+	c #E9C512",
"k+	c #F6EA12",
"l+	c #F5E105",
"m+	c #F5E300",
"n+	c #F5E600",
"o+	c #F5E801",
"p+	c #F6EB00",
"q+	c #FFF500",
"r+	c #FBF200",
"s+	c #FEF607",
"t+	c #F7EB00",
"u+	c #EFE102",
"v+	c #1A1803",
"w+	c #6C5F0E",
"x+	c #FFE40F",
"y+	c #F28700",
"z+	c #F83922",
"A+	c #FA3C46",
"B+	c #F9393C",
"C+	c #F83334",
"D+	c #F82F2F",
"E+	c #F92D2D",
"F+	c #F92B2B",
"G+	c #F92B2C",
"H+	c #F92D2E",
"I+	c #F93031",
"J+	c #F83536",
"K+	c #FC3E40",
"L+	c #FF4342",
"M+	c #F74B1A",
"N+	c #F3AE04",
"O+	c #F3DF00",
"P+	c #F4DB00",
"Q+	c #F4E000",
"R+	c #F5E500",
"S+	c #F7E901",
"T+	c #9B9303",
"U+	c #464302",
"V+	c #605B02",
"W+	c #F3E400",
"X+	c #F9E700",
"Y+	c #AB9C04",
"Z+	c #3B3304",
"`+	c #423704",
" @	c #C9A803",
".@	c #F66E00",
"+@	c #F72714",
"@@	c #F83B3E",
"#@	c #F82D2E",
"$@	c #F82829",
"%@	c #F82525",
"&@	c #F82222",
"*@	c #F82121",
"=@	c #F82221",
"-@	c #F82423",
";@	c #F92727",
">@	c #F82B2B",
",@	c #F93030",
"'@	c #F83939",
")@	c #F83A41",
"!@	c #F63714",
"~@	c #F29F00",
"{@	c #F1D800",
"]@	c #F1D600",
"^@	c #FAE300",
"/@	c #C7B702",
"(@	c #F8DF00",
"_@	c #FFE101",
":@	c #C0A305",
"<@	c #DBB503",
"[@	c #F47701",
"}@	c #F51405",
"|@	c #F83834",
"1@	c #F83335",
"2@	c #F82A2A",
"3@	c #F82524",
"4@	c #F8201F",
"5@	c #F81C1C",
"6@	c #F81A1B",
"7@	c #F81919",
"8@	c #F81B1B",
"9@	c #F81E1E",
"0@	c #F82727",
"a@	c #F83638",
"b@	c #F83A3D",
"c@	c #F5360E",
"d@	c #EEA800",
"e@	c #EDD000",
"f@	c #F4D700",
"g@	c #D4BF02",
"h@	c #1B1902",
"i@	c #D6C002",
"j@	c #B39D03",
"k@	c #514504",
"l@	c #121004",
"m@	c #B97204",
"n@	c #F92900",
"o@	c #F82D20",
"p@	c #F83537",
"q@	c #F82A29",
"r@	c #F82322",
"s@	c #F81D1D",
"t@	c #F81616",
"u@	c #F81414",
"v@	c #F81313",
"w@	c #F81314",
"x@	c #F71515",
"y@	c #F81718",
"z@	c #F7201F",
"A@	c #F92626",
"B@	c #FB2D2E",
"C@	c #F8383A",
"D@	c #F83435",
"E@	c #F14006",
"F@	c #E7B800",
"G@	c #EAC800",
"H@	c #F5D500",
"I@	c #D3BD02",
"J@	c #8B7E02",
"K@	c #998E03",
"L@	c #181504",
"M@	c #1F1903",
"N@	c #523F04",
"O@	c #B58703",
"P@	c #EA4A00",
"Q@	c #F61F0C",
"R@	c #F73735",
"S@	c #F72C2D",
"T@	c #F82323",
"U@	c #F81111",
"V@	c #F80C0C",
"W@	c #F70909",
"X@	c #F70808",
"Y@	c #F70A0A",
"Z@	c #F70F0F",
"`@	c #F81212",
" #	c #FD1A1A",
".#	c #FB2120",
"+#	c #F42727",
"@#	c #FF3131",
"##	c #F83D3E",
"$#	c #F61D18",
"%#	c #E46D00",
"&#	c #DEBA01",
"*#	c #CCAB02",
"=#	c #7F6F02",
"-#	c #6C6202",
";#	c #EAD401",
">#	c #B69702",
",#	c #D1A502",
"'#	c #E0A801",
")#	c #D47C01",
"!#	c #EB1600",
"~#	c #F52716",
"{#	c #F53235",
"]#	c #FF2727",
"^#	c #FF201F",
"/#	c #FF1819",
"(#	c #FD1313",
"_#	c #F70E0E",
":#	c #F70505",
"<#	c #F70000",
"[#	c #F60000",
"}#	c #F60202",
"|#	c #FB1111",
"1#	c #DC1515",
"2#	c #450A0A",
"3#	c #290808",
"4#	c #961D1D",
"5#	c #FC3739",
"6#	c #FC2A16",
"7#	c #D11C00",
"8#	c #2F2303",
"9#	c #1C1802",
"0#	c #261F02",
"a#	c #826F02",
"b#	c #DDC200",
"c#	c #CFA300",
"d#	c #C69000",
"e#	c #BD8200",
"f#	c #C84901",
"g#	c #F00701",
"h#	c #F31B03",
"i#	c #FC2720",
"j#	c #C71F20",
"k#	c #5C0D0D",
"l#	c #690C0C",
"m#	c #E0100F",
"n#	c #FA0303",
"o#	c #F60100",
"p#	c #FF0B0B",
"q#	c #6A0B0C",
"r#	c #010102",
"s#	c #D22928",
"t#	c #FE2409",
"u#	c #EE1300",
"v#	c #9C4E02",
"w#	c #A78501",
"x#	c #CCA501",
"y#	c #D8B500",
"z#	c #CDAE01",
"A#	c #E7D607",
"B#	c #CAA500",
"C#	c #9F6600",
"D#	c #C42001",
"E#	c #F10B00",
"F#	c #F61500",
"G#	c #E61906",
"H#	c #1D0606",
"I#	c #480404",
"J#	c #FA0101",
"K#	c #F70100",
"L#	c #F50000",
"M#	c #FF0302",
"N#	c #6F0909",
"O#	c #000002",
"P#	c #C2211B",
"Q#	c #FE1900",
"R#	c #F50F00",
"S#	c #D14F01",
"T#	c #B68E00",
"U#	c #B98E00",
"V#	c #B48F01",
"W#	c #BC9A01",
"X#	c #FBFA3E",
"Y#	c #FCF923",
"Z#	c #DED305",
"`#	c #D95400",
" $	c #EB0000",
".$	c #F70F00",
"+$	c #CE1302",
"@$	c #000101",
"#$	c #210202",
"$$	c #F20101",
"%$	c #F50100",
"&$	c #F40000",
"*$	c #F90000",
"=$	c #DD0A09",
"-$	c #400809",
";$	c #160302",
">$	c #610C08",
",$	c #F31F13",
"'$	c #F40E00",
")$	c #F30B01",
"!$	c #CA2B01",
"~$	c #916B02",
"{$	c #9A7101",
"]$	c #C0A500",
"^$	c #E9DD05",
"/$	c #F9F53A",
"($	c #F9F542",
"_$	c #FDFC37",
":$	c #FAF60C",
"<$	c #F09100",
"[$	c #ED1101",
"}$	c #F10701",
"|$	c #580703",
"1$	c #0A0202",
"2$	c #940404",
"3$	c #FD0000",
"4$	c #FF0000",
"5$	c #FE0101",
"6$	c #FD0101",
"7$	c #FF0100",
"8$	c #FF0605",
"9$	c #F80E0A",
"0$	c #E30D02",
"a$	c #F90E01",
"b$	c #EF1101",
"c$	c #C21301",
"d$	c #805F02",
"e$	c #CFBA01",
"f$	c #F9F109",
"g$	c #FBF735",
"h$	c #F9F52F",
"i$	c #F9F43D",
"j$	c #F8F534",
"k$	c #F8FE03",
"l$	c #F1B602",
"m$	c #EB1602",
"n$	c #EB0202",
"o$	c #BE0702",
"p$	c #CC0602",
"q$	c #FB0001",
"r$	c #EF0202",
"s$	c #BE0303",
"t$	c #8B0303",
"u$	c #610303",
"v$	c #440303",
"w$	c #3C0302",
"x$	c #4C0303",
"y$	c #730303",
"z$	c #AB0603",
"A$	c #E90A02",
"B$	c #FF0A00",
"C$	c #F50A00",
"D$	c #EE0C01",
"E$	c #EC0D00",
"F$	c #E70101",
"G$	c #C82403",
"H$	c #D6C802",
"I$	c #FDF300",
"J$	c #F8F129",
"K$	c #F8F33D",
"L$	c #F9F526",
"M$	c #F8F52B",
"N$	c #F8F530",
"O$	c #F8F43A",
"P$	c #F8F123",
"Q$	c #F7FC00",
"R$	c #EFB302",
"S$	c #E60C01",
"T$	c #F00100",
"U$	c #F90400",
"V$	c #ED0202",
"W$	c #890303",
"X$	c #1F0202",
"Y$	c #000202",
"Z$	c #050202",
"`$	c #1E0202",
" %	c #320202",
".%	c #380202",
"+%	c #2D0202",
"@%	c #160202",
"#%	c #130302",
"$%	c #7F0704",
"%%	c #EC0902",
"&%	c #ED0900",
"*%	c #E30400",
"=%	c #DA1601",
"-%	c #EEB802",
";%	c #F9F200",
">%	c #F6EC06",
",%	c #F7F231",
"'%	c #F8F330",
")%	c #F8F420",
"!%	c #F9F424",
"~%	c #F8F428",
"{%	c #F8F42F",
"]%	c #F8F338",
"^%	c #F7EF11",
"/%	c #F6FA00",
"(%	c #EA8D03",
"_%	c #E30001",
":%	c #DD0402",
"<%	c #3D0403",
"[%	c #4E0303",
"}%	c #AA0303",
"|%	c #DA0202",
"1%	c #ED0101",
"2%	c #F50101",
"3%	c #F60101",
"4%	c #F30101",
"5%	c #E70202",
"6%	c #C80703",
"7%	c #6E0603",
"8%	c #000102",
"9%	c #3F0403",
"0%	c #E10501",
"a%	c #D50301",
"b%	c #E49A03",
"c%	c #F4F100",
"d%	c #F4E900",
"e%	c #F6EF16",
"f%	c #F8F230",
"g%	c #F9F328",
"h%	c #F9F41B",
"i%	c #F9F41E",
"j%	c #F8F423",
"k%	c #F7F430",
"l%	c #F7F22F",
"m%	c #F6EE04",
"n%	c #F6F200",
"o%	c #E54F03",
"p%	c #470002",
"q%	c #050101",
"r%	c #AC0403",
"s%	c #EF0000",
"t%	c #EC0001",
"u%	c #EB0001",
"v%	c #EA0000",
"w%	c #EA0001",
"x%	c #EB0300",
"y%	c #F10500",
"z%	c #F70601",
"A%	c #AB0602",
"B%	c #590403",
"C%	c #C50001",
"D%	c #D05402",
"E%	c #F2E801",
"F%	c #F4E700",
"G%	c #F4EA02",
"H%	c #F7F025",
"I%	c #F8F229",
"J%	c #F8F322",
"K%	c #F8F416",
"L%	c #F8F419",
"M%	c #F8F328",
"N%	c #F7F333",
"O%	c #F6EF1E",
"P%	c #F7F200",
"Q%	c #E5C302",
"R%	c #360C03",
"S%	c #8E0202",
"T%	c #ED0300",
"U%	c #E00100",
"V%	c #E20000",
"W%	c #E30000",
"X%	c #E40000",
"Y%	c #E50001",
"Z%	c #E50000",
"`%	c #E40100",
" &	c #E40400",
".&	c #E30501",
"+&	c #E00500",
"@&	c #E30500",
"#&	c #D80200",
"$&	c #B40C01",
"%&	c #DDB702",
"&&	c #F3E800",
"*&	c #FFF300",
"=&	c #FFF611",
"-&	c #F7F02A",
";&	c #F7F122",
">&	c #F7F31D",
",&	c #F8F413",
"'&	c #F8F31A",
")&	c #F8F22C",
"!&	c #F6F131",
"~&	c #F5EB07",
"{&	c #F4F000",
"]&	c #D15D03",
"^&	c #C90000",
"/&	c #D10300",
"(&	c #D70300",
"_&	c #DA0200",
":&	c #DC0100",
"<&	c #DD0100",
"[&	c #DD0101",
"}&	c #DE0000",
"|&	c #DC0200",
"1&	c #DB0400",
"2&	c #D90500",
"3&	c #D40400",
"4&	c #CB0400",
"5&	c #B00000",
"6&	c #B24D02",
"7&	c #F2E100",
"8&	c #EFE002",
"9&	c #968F04",
"0&	c #AFA91A",
"a&	c #FCF526",
"b&	c #F7F21D",
"c&	c #F7F21A",
"d&	c #F8F30F",
"e&	c #F8F313",
"f&	c #F8F31B",
"g&	c #F8F220",
"h&	c #F8F327",
"i&	c #F7F12C",
"j&	c #F4ED06",
"k&	c #F5EE00",
"l&	c #DDAC02",
"m&	c #AE0101",
"n&	c #C20100",
"o&	c #CA0300",
"p&	c #CD0201",
"q&	c #D10100",
"r&	c #D30100",
"s&	c #D20101",
"t&	c #D10302",
"u&	c #CF0300",
"v&	c #CB0300",
"w&	c #C30300",
"x&	c #B30100",
"y&	c #8E0000",
"z&	c #C69202",
"A&	c #FCEA00",
"B&	c #787005",
"C&	c #B0AB19",
"D&	c #FEFA1C",
"E&	c #F7F116",
"F&	c #F7F305",
"G&	c #F7F318",
"H&	c #F8F226",
"I&	c #F6F01E",
"J&	c #F4EC00",
"K&	c #F3E700",
"L&	c #EADA02",
"M&	c #A22602",
"N&	c #A60000",
"O&	c #B60201",
"P&	c #BE0201",
"Q&	c #C20101",
"R&	c #C40001",
"S&	c #C50100",
"T&	c #C50101",
"U&	c #C20302",
"V&	c #BD0201",
"W&	c #B70200",
"X&	c #AC0200",
"Y&	c #910000",
"Z&	c #761201",
"`&	c #DBBA01",
" *	c #E8D601",
".*	c #211E02",
"+*	c #4F4D0B",
"@*	c #FBF51A",
"#*	c #F7F214",
"$*	c #F7F100",
"%*	c #F6F209",
"&*	c #F7F211",
"**	c #F7F215",
"=*	c #F7F21B",
"-*	c #F7F120",
";*	c #F5EF07",
">*	c #F1E600",
",*	c #F1E700",
"'*	c #A75902",
")*	c #840000",
"!*	c #9E0201",
"~*	c #AA0201",
"{*	c #AE0202",
"]*	c #B20202",
"^*	c #B40202",
"/*	c #B40302",
"(*	c #AF0202",
"_*	c #A60201",
":*	c #9C0100",
"<*	c #8C0100",
"[*	c #640000",
"}*	c #6B2D02",
"|*	c #E5C700",
"1*	c #E0CE01",
"2*	c #1C1A02",
"3*	c #3E3C07",
"4*	c #F3EC16",
"5*	c #F7F212",
"6*	c #F6F100",
"7*	c #F6F104",
"8*	c #F6F10F",
"9*	c #F6F114",
"0*	c #F6F01A",
"a*	c #F4ED00",
"b*	c #F3EA00",
"c*	c #F1E500",
"d*	c #B28103",
"e*	c #6B0002",
"f*	c #850202",
"g*	c #920302",
"h*	c #970403",
"i*	c #9C0403",
"j*	c #9E0303",
"k*	c #9C0303",
"l*	c #950302",
"m*	c #8A0201",
"n*	c #7A0101",
"o*	c #670001",
"p*	c #3F0003",
"q*	c #714907",
"r*	c #E4C700",
"s*	c #EEDA01",
"t*	c #565002",
"u*	c #746F03",
"v*	c #F9F20D",
"w*	c #F6EF12",
"x*	c #F6F101",
"y*	c #F7F002",
"z*	c #F5F10D",
"A*	c #F6F01B",
"B*	c #F5EE10",
"C*	c #F2E701",
"D*	c #EFE200",
"E*	c #BA9702",
"F*	c #520002",
"G*	c #680202",
"H*	c #7B0203",
"I*	c #7C0003",
"J*	c #7B0003",
"K*	c #760003",
"L*	c #6F0003",
"M*	c #640002",
"N*	c #510002",
"O*	c #360003",
"P*	c #190010",
"Q*	c #6F5611",
"R*	c #DCBD00",
"S*	c #E6D100",
"T*	c #DACB02",
"U*	c #595402",
"V*	c #DCD301",
"W*	c #F6ED06",
"X*	c #F4EC10",
"Y*	c #F6F001",
"Z*	c #F7EF01",
"`*	c #F5F00B",
" =	c #F5EF0F",
".=	c #F5EF13",
"+=	c #F3EC0A",
"@=	c #EDE000",
"#=	c #ECDC01",
"$=	c #B69D02",
"%=	c #320101",
"&=	c #400001",
"*=	c #490002",
"==	c #5A0303",
"-=	c #782703",
";=	c #985404",
">=	c #B07C03",
",=	c #BD9602",
"'=	c #C3A401",
")=	c #BEA600",
"!=	c #A99E01",
"~=	c #938D08",
"{=	c #AC9A07",
"]=	c #DFC700",
"^=	c #D5C302",
"/=	c #9A8E02",
"(=	c #E8D901",
"_=	c #F4E601",
":=	c #F1E702",
"<=	c #F3EA0B",
"[=	c #F5EF00",
"}=	c #F5EE01",
"|=	c #F5ED00",
"1=	c #F3E901",
"2=	c #F2E700",
"3=	c #EEE300",
"4=	c #E8D401",
"5=	c #AD9702",
"6=	c #0C0203",
"7=	c #342502",
"8=	c #907702",
"9=	c #D5C102",
"0=	c #F3EB00",
"a=	c #FEFB00",
"b=	c #FFFF02",
"c=	c #FFFE06",
"d=	c #FFFE0B",
"e=	c #FFFE11",
"f=	c #FFFE10",
"g=	c #FFFE0A",
"h=	c #FEF904",
"i=	c #F9F300",
"j=	c #EFE900",
"k=	c #ABA700",
"l=	c #DCD001",
"m=	c #EEE100",
"n=	c #EFE300",
"o=	c #F5EE12",
"p=	c #F4ED12",
"q=	c #F4EB12",
"r=	c #F3E913",
"s=	c #F0E512",
"t=	c #ECE012",
"u=	c #E7D712",
"v=	c #DFCD13",
"w=	c #BAA614",
"x=	c #A19A15",
"y=	c #EDE914",
"z=	c #FFFE12",
"A=	c #FEFA15",
"B=	c #FAF628",
"C=	c #F9F539",
"D=	c #F9F541",
"E=	c #F9F646",
"F=	c #F9F64A",
"G=	c #F9F74D",
"H=	c #F9F74C",
"I=	c #F9F74B",
"J=	c #F9F746",
"K=	c #F9F73D",
"L=	c #FAF731",
"M=	c #FFFC1E",
"N=	c #F8F412",
"O=	c #F1E812",
"P=	c #EEE212",
"Q=	c #EEE312",
". + @ # $ % & * = - ; > , ' ) ! ~ { ] ^ / ( _ : < [ } | 1 2 3 4 ",
"5 6 7 8 9 0 a b c d e f g h i j k l m n o p q r s t u v w x y 6 ",
"z A B C D E F G H I J K L M N O P Q R S T U V W X 3 Y z Z Y `  .",
"..+.@.#.$.%.&.*.=.-.;.>.,.'.).!.~.{.].^./.l %.(._.:.<.[.}...|.1.",
"2.3.4.5.6.7.8.9.0.a.b.c.d.e.f.g.h._ i.j.k.l.m.n.o.p.3.2.q.r.s.- ",
"t.u.v.w.x.y.z.A.B.C.D.E.F.G.H.I.J.K.L.M.N.O.P.Q.R.S.T.U.V.W.> ; ",
"X.Y.Z.`. +.+++@+#+$+%+&+*+=+-+;+>+,+'+)+!+~+{+]+^+/+(+_+:+<+[+}+",
"|+1+2+M 3+4+5+6+7+8+9+0+a+b+c+d+c+e+f+g+h+i+j+k+l+m+n+o+p+q+r+s+",
"t+u+v+N N w+x+y+z+A+B+C+D+E+F+F+G+H+I+J+K+L+M+N+O+P+Q+R+S+T+U+V+",
"W+X+Y+Z+`+ @.@+@@@J+#@$@%@&@*@*@=@-@;@>@,@'@)@!@~@{@]@^@/@M N N ",
"Q+(@_@:@<@[@}@|@1@2@3@4@5@6@7@7@7@8@9@&@0@#@a@b@c@d@e@f@g@h@N M ",
"i@j@k@l@m@n@o@p@q@r@s@7@t@u@v@v@w@x@y@8@z@A@B@C@D@E@F@G@H@I@J@K@",
"L@M@N@O@P@Q@R@S@T@5@y@v@U@V@W@X@Y@Z@`@x@ #.#+#@###$#%#&#*#=#-#;#",
">#,#'#)#!#~#{#]#^#/#(#_#:#<#[#<#<#}#Y@|#1#2#3#4#5#6#7#8#9#0#a#b#",
"c#d#e#f#g#h#i#j#k#l#m#n#[#o#o#o#o#o#[#p#q#N N r#s#t#u#v#w#x#y#z#",
"A#B#C#D#E#F#G#H#N N I#J#K#o#o#o#o#L#L#M#N#N N O#P#Q#R#S#T#U#V#W#",
"X#Y#Z#`# $.$+$@$N N #$$$<#%$L#L#L#L#&$*$=$-$;$>$,$'$)$!$~${$]$^$",
"/$($_$:$<$[$}$|$@$1$2$3$<#3$4$4$5$6$7$4$8$9$0$a$R#b$E#c$d$e$f$g$",
"h$ .i$j$k$l$m$n$o$p$q$4$r$s$t$u$v$w$x$y$z$A$B$C$D$E$F$G$H$I$J$K$",
"L$M$N$O$P$Q$R$S$T$U$V$W$X$Y$Z$`$ %.%+%@%Y$#%$%%%&%*%=%-%;%>%,%'%",
")%!%~%{%]%^%/%(%_%:%<%@$[%}%|%1%2%3%4%5%6%7%8%9%0%a%b%c%d%e%f%g%",
"h%i%j%~%k%l%m%n%o%p%q%r%2%[#s%t%u%v%w%x%y%z%A%B%C%D%E%F%G%H%I%J%",
"K%L%[.|.M%N%O%P%Q%R%S%T%U%V%W%X%Y%Z%`% &.&+&@&#&$&%&&&*&=&-&;&>&",
",&2.'&[.@.)&!&~&{&]&^&/&(&_&:&<&[&}&|&1&2&3&4&5&6&7&8&9&0&a&b&c&",
"d&e&2.f&g&h&i&j&k&l&m&n&o&p&q&r&r&s&t&u&v&w&x&y&z&A&B&M r#C&D&E&",
"F&d&e&G&b&H&I&J&K&L&M&N&O&P&Q&R&S&T&U&V&W&X&Y&Z&`& *.*N N +*@*#*",
"$*%*&***=*-*;*J&>*,*'*)*!*~*{*]*^*/*(*_*:*<*[*}*|*1*2*N N 3*4*5*",
"6*7*8*9*0*e%a*b*c*>*d*e*f*g*h*i*j*k*l*m*n*o*p*q*r*s*t*N N u*v*w*",
"x*y*z*9*A*B*b*C*: D*E*F*G*y$H*I*J*K*L*M*N*O*P*Q*R*S*T*U*V+V*W*X*",
"Y*Z*`* =.=+=&&>*@=#=$=%=&=*===-=;=>=,='=)=!=~={=]=^=/=(=_=K&:=<=",
"[=k&}=|=J&1=2=3=j.4=5=6=7=8=9=0=a=b=c=d=e=f=g=h=i=j=k=l=m=( n=,*",
"o=o=o=p=q=r=s=t=u=v=w=x=y=z=A=B=C=D=E=F=G=H=I=J=K=L=M=N=w*O=P=Q="};
