/* XPM */
static char * C:\ie\ark\programs\maya\ui\icons\randomShaders_xpm[] = {
"32 32 1013 2",
"  	c None",
". 	c #231B27",
"+ 	c #161626",
"@ 	c #0D0B17",
"# 	c #17161F",
"$ 	c #0B0816",
"% 	c #504849",
"& 	c #C59A90",
"* 	c #CB2B24",
"= 	c #E20100",
"- 	c #E90703",
"; 	c #F80903",
"> 	c #FF0D03",
", 	c #FF0E02",
"' 	c #FF0D01",
") 	c #FF0B00",
"! 	c #BA0F0B",
"~ 	c #6E0D12",
"{ 	c #E20301",
"] 	c #C5170E",
"^ 	c #1A412A",
"/ 	c #03050D",
"( 	c #0D231E",
"_ 	c #0E261C",
": 	c #193629",
"< 	c #083420",
"[ 	c #084328",
"} 	c #0D333C",
"| 	c #04042B",
"1 	c #0C185D",
"2 	c #141F53",
"3 	c #11287C",
"4 	c #163597",
"5 	c #040A13",
"6 	c #07060E",
"7 	c #0F0C1A",
"8 	c #14111F",
"9 	c #0A030E",
"0 	c #7B6D65",
"a 	c #B26153",
"b 	c #C00E07",
"c 	c #A70000",
"d 	c #C10304",
"e 	c #C30303",
"f 	c #C60203",
"g 	c #D50502",
"h 	c #E40603",
"i 	c #F30300",
"j 	c #C3342B",
"k 	c #B15454",
"l 	c #DA0B07",
"m 	c #53442A",
"n 	c #071D19",
"o 	c #143427",
"p 	c #0E2A20",
"q 	c #0D2A1F",
"r 	c #0F1917",
"s 	c #0C4D2E",
"t 	c #3F7761",
"u 	c #0C0938",
"v 	c #0F195A",
"w 	c #0F1B5F",
"x 	c #0E1A4D",
"y 	c #050B36",
"z 	c #242D6D",
"A 	c #0C0E1C",
"B 	c #0B0A15",
"C 	c #0F0C18",
"D 	c #090613",
"E 	c #130E11",
"F 	c #B6A298",
"G 	c #CF7168",
"H 	c #BF0603",
"I 	c #B70203",
"J 	c #CC0506",
"K 	c #BB0103",
"L 	c #A40102",
"M 	c #C20405",
"N 	c #A10202",
"O 	c #9F0000",
"P 	c #BC2D24",
"Q 	c #DF9E96",
"R 	c #774532",
"S 	c #00251D",
"T 	c #0A090E",
"U 	c #132E22",
"V 	c #111E17",
"W 	c #0F3025",
"X 	c #051912",
"Y 	c #0B452B",
"Z 	c #1F1E2D",
"` 	c #000536",
" .	c #0F1D6B",
"..	c #090B32",
"+.	c #0D1D67",
"@.	c #051E7C",
"#.	c #41354E",
"$.	c #0B0B16",
"%.	c #090815",
"&.	c #100F1A",
"*.	c #0E0D1D",
"=.	c #403536",
"-.	c #E4C6B7",
";.	c #DF7469",
">.	c #D10000",
",.	c #D30202",
"'.	c #B90707",
").	c #CA0808",
"!.	c #C80204",
"~.	c #B60202",
"{.	c #AC0206",
"].	c #970100",
"^.	c #A81815",
"/.	c #8A6062",
"(.	c #1F150C",
"_.	c #064424",
":.	c #08371E",
"<.	c #082420",
"[.	c #1B342E",
"}.	c #113223",
"|.	c #01512C",
"1.	c #505047",
"2.	c #83727A",
"3.	c #1F192F",
"4.	c #010740",
"5.	c #1C2465",
"6.	c #13206B",
"7.	c #0C278B",
"8.	c #98752F",
"9.	c #000108",
"0.	c #05050F",
"a.	c #080912",
"b.	c #02010C",
"c.	c #5D504D",
"d.	c #E9D9C8",
"e.	c #E06258",
"f.	c #DE0000",
"g.	c #D20102",
"h.	c #CB0E0F",
"i.	c #C10A09",
"j.	c #C90203",
"k.	c #C10B0D",
"l.	c #D4080A",
"m.	c #CC0000",
"n.	c #AB3F39",
"o.	c #4A435B",
"p.	c #051C60",
"q.	c #09184C",
"r.	c #094425",
"s.	c #084621",
"t.	c #030F0C",
"u.	c #023D21",
"v.	c #3C5141",
"w.	c #EDD0BF",
"x.	c #FFEED8",
"y.	c #8F86A7",
"z.	c #0A105A",
"A.	c #030839",
"B.	c #000445",
"C.	c #354476",
"D.	c #E3BB22",
"E.	c #2C0207",
"F.	c #10020A",
"G.	c #06030A",
"H.	c #00020A",
"I.	c #210C0D",
"J.	c #52302D",
"K.	c #8A1818",
"L.	c #C50705",
"M.	c #D60604",
"N.	c #CF0303",
"O.	c #CC0403",
"P.	c #D10304",
"Q.	c #C2070A",
"R.	c #C50202",
"S.	c #E21108",
"T.	c #B3776F",
"U.	c #202659",
"V.	c #084CBD",
"W.	c #084AB8",
"X.	c #081D6D",
"Y.	c #093330",
"Z.	c #065E2F",
"`.	c #1F5130",
" +	c #CDB2A4",
".+	c #F2DACA",
"++	c #E8D1C2",
"@+	c #E2CCC7",
"#+	c #D2C3D1",
"$+	c #77779F",
"%+	c #072682",
"&+	c #8E8469",
"*+	c #F0C411",
"=+	c #C00606",
"-+	c #640203",
";+	c #6C0304",
">+	c #630206",
",+	c #470103",
"'+	c #B78928",
")+	c #B27C08",
"!+	c #732604",
"~+	c #600505",
"{+	c #550607",
"]+	c #730509",
"^+	c #980607",
"/+	c #AF0605",
"(+	c #D20201",
"_+	c #D41D17",
":+	c #8E6769",
"<+	c #0B0E2B",
"[+	c #063B91",
"}+	c #065AC3",
"|+	c #0757C7",
"1+	c #0A2375",
"2+	c #15181E",
"3+	c #3C2E2D",
"4+	c #C9AFA7",
"5+	c #F4D9CF",
"6+	c #E8D0C4",
"7+	c #F4D8C7",
"8+	c #D9B9B0",
"9+	c #8B6C57",
"0+	c #D5AD39",
"a+	c #EBBF13",
"b+	c #CC0504",
"c+	c #E50603",
"d+	c #E70604",
"e+	c #CC0503",
"f+	c #7B0801",
"g+	c #C18E1D",
"h+	c #D0A206",
"i+	c #843B04",
"j+	c #5B0404",
"k+	c #1F0708",
"l+	c #010411",
"m+	c #03050F",
"n+	c #10040E",
"o+	c #27030B",
"p+	c #4F1B18",
"q+	c #4C4360",
"r+	c #050216",
"s+	c #0B2E7B",
"t+	c #0E43A4",
"u+	c #120F32",
"v+	c #462933",
"w+	c #452A31",
"x+	c #2D181E",
"y+	c #9D847E",
"z+	c #F1D8CC",
"A+	c #EBD3C6",
"B+	c #E6CEC0",
"C+	c #E8CFBF",
"D+	c #F3D8C9",
"E+	c #D8B7A7",
"F+	c #A06B12",
"G+	c #F90C02",
"H+	c #FF0B04",
"I+	c #ED0D04",
"J+	c #DD0E05",
"K+	c #BF6B54",
"L+	c #C99935",
"M+	c #CE9D02",
"N+	c #A66907",
"O+	c #591D04",
"P+	c #0C000F",
"Q+	c #050415",
"R+	c #060515",
"S+	c #060514",
"T+	c #020413",
"U+	c #000522",
"V+	c #071971",
"W+	c #0A156D",
"X+	c #070426",
"Y+	c #05000D",
"Z+	c #090A32",
"`+	c #463E61",
" @	c #A58B90",
".@	c #7B5F64",
"+@	c #573D3D",
"@@	c #492D2E",
"#@	c #795D5A",
"$@	c #DAC2B6",
"%@	c #EED7CA",
"&@	c #E6CCC2",
"*@	c #E6CCC0",
"=@	c #E5CAC0",
"-@	c #B59080",
";@	c #E20602",
">@	c #FC0B00",
",@	c #F90702",
"'@	c #E42015",
")@	c #E9BDA8",
"!@	c #E1B661",
"~@	c #D19E00",
"{@	c #BA8303",
"]@	c #844A06",
"^@	c #1E060B",
"/@	c #020414",
"(@	c #060614",
"_@	c #070618",
":@	c #070514",
"<@	c #0A1556",
"[@	c #0B2494",
"}@	c #0A2B9B",
"|@	c #08227B",
"1@	c #070A27",
"2@	c #0C1651",
"3@	c #111C54",
"4@	c #666FA0",
"5@	c #CEBEC1",
"6@	c #D4B7AF",
"7@	c #856869",
"8@	c #412020",
"9@	c #573833",
"0@	c #BCA396",
"a@	c #EDD6C7",
"b@	c #E8CBC0",
"c@	c #E5CABC",
"d@	c #E7D3C8",
"e@	c #8A1D15",
"f@	c #B7170E",
"g@	c #B80000",
"h@	c #CE3F2F",
"i@	c #ECD0BC",
"j@	c #E9C473",
"k@	c #EBBA09",
"l@	c #DFAD07",
"m@	c #BB840D",
"n@	c #2D1E2C",
"o@	c #000C49",
"p@	c #090835",
"q@	c #040427",
"r@	c #040829",
"s@	c #031B7A",
"t@	c #092898",
"u@	c #0C35AB",
"v@	c #0B379B",
"w@	c #102770",
"x@	c #080D2F",
"y@	c #050419",
"z@	c #000534",
"A@	c #3C4D8A",
"B@	c #8F8AAD",
"C@	c #977B7A",
"D@	c #A68C85",
"E@	c #7A5A56",
"F@	c #482117",
"G@	c #997A69",
"H@	c #E9D1C4",
"I@	c #E8CFC3",
"J@	c #E2C8BB",
"K@	c #008342",
"L@	c #1D834C",
"M@	c #6D471D",
"N@	c #C17F57",
"O@	c #F4D7B6",
"P@	c #F1C652",
"Q@	c #F7C510",
"R@	c #FAC714",
"S@	c #F2BF24",
"T@	c #513C40",
"U@	c #3F3861",
"V@	c #B79B48",
"W@	c #9F7B2C",
"X@	c #311F23",
"Y@	c #5E4E4A",
"Z@	c #2B2444",
"`@	c #151740",
" #	c #193071",
".#	c #0A1C5A",
"+#	c #0C0E40",
"@#	c #0B154E",
"##	c #0A1042",
"$#	c #00001A",
"%#	c #102068",
"&#	c #AFA8BC",
"*#	c #DEC2B4",
"=#	c #987A6F",
"-#	c #6D473D",
";#	c #572F27",
">#	c #7A5A4E",
",#	c #D2B9AA",
"'#	c #F4DACE",
")#	c #008D42",
"!#	c #037E3A",
"~#	c #9A9D75",
"{#	c #F1D8C1",
"]#	c #F0CE76",
"^#	c #E5B507",
"/#	c #F0BE0D",
"(#	c #F7C614",
"_#	c #FDCD1B",
":#	c #B6801C",
"<#	c #A9710F",
"[#	c #FFD216",
"}#	c #F5C412",
"|#	c #DBAC1B",
"1#	c #FECE1E",
"2#	c #C19315",
"3#	c #341C1B",
"4#	c #0A256F",
"5#	c #030534",
"6#	c #0D1969",
"7#	c #131543",
"8#	c #152779",
"9#	c #001876",
"0#	c #374D8E",
"a#	c #E0C8C1",
"b#	c #F1D5C7",
"c#	c #DBB896",
"d#	c #D3B396",
"e#	c #A3847F",
"f#	c #532B1A",
"g#	c #573119",
"h#	c #A98A7F",
"i#	c #008B3D",
"j#	c #068139",
"k#	c #9FA581",
"l#	c #F8DEBE",
"m#	c #EEC43B",
"n#	c #DEAF0A",
"o#	c #DBAA02",
"p#	c #EFBE0B",
"q#	c #EEBB12",
"r#	c #B27E1B",
"s#	c #D5A527",
"t#	c #F1C113",
"u#	c #ECBD10",
"v#	c #F0C017",
"w#	c #ECBE12",
"x#	c #EABD1F",
"y#	c #704929",
"z#	c #3E3854",
"A#	c #0B2685",
"B#	c #03137A",
"C#	c #161960",
"D#	c #0E2588",
"E#	c #0738A6",
"F#	c #9C90A3",
"G#	c #DCBDAE",
"H#	c #E0C1A6",
"I#	c #E3B355",
"J#	c #D19A41",
"K#	c #C9A262",
"L#	c #957254",
"M#	c #73534A",
"N#	c #401B1C",
"O#	c #018A3D",
"P#	c #008841",
"Q#	c #43966A",
"R#	c #E3C876",
"S#	c #F3C313",
"T#	c #CB9719",
"U#	c #C4905E",
"V#	c #DAB077",
"W#	c #BF9453",
"X#	c #CCA379",
"Y#	c #E7B841",
"Z#	c #EFC117",
"`#	c #F1C418",
" $	c #F2C317",
".$	c #F3C50E",
"+$	c #CBA420",
"@$	c #9D7428",
"#$	c #F1BD18",
"$$	c #AA842B",
"%$	c #2E3974",
"&$	c #031873",
"*$	c #011C80",
"=$	c #5C6BA3",
"-$	c #F3D7C6",
";$	c #D8BBA9",
">$	c #DDB363",
",$	c #9B490F",
"'$	c #8B2D00",
")$	c #B56E15",
"!$	c #DDB25C",
"~$	c #BF9E76",
"{$	c #6A4836",
"]$	c #008A43",
"^$	c #008C43",
"/$	c #2E7532",
"($	c #DEB225",
"_$	c #F5C30E",
":$	c #C89520",
"<$	c #C89C92",
"[$	c #F4D3C7",
"}$	c #F7DECB",
"|$	c #F3D9C4",
"1$	c #9B6939",
"2$	c #95520A",
"3$	c #A36A13",
"4$	c #B78412",
"5$	c #D8AC1A",
"6$	c #C09426",
"7$	c #B7870C",
"8$	c #E2B41A",
"9$	c #E5B621",
"0$	c #56441A",
"a$	c #011040",
"b$	c #233B83",
"c$	c #C6B2B5",
"d$	c #E7CBBD",
"e$	c #F2D8A5",
"f$	c #C2812E",
"g$	c #9B3E06",
"h$	c #B46212",
"i$	c #AC5407",
"j$	c #A64A00",
"k$	c #C5811A",
"l$	c #D7AF6A",
"m$	c #457D37",
"n$	c #4F652C",
"o$	c #997F20",
"p$	c #F7C11C",
"q$	c #EFBC10",
"r$	c #D9AD2B",
"s$	c #D6B19E",
"t$	c #F0CEBE",
"u$	c #F6D6C4",
"v$	c #EECFBF",
"w$	c #AC867E",
"x$	c #682F18",
"y$	c #632101",
"z$	c #6B2806",
"A$	c #581708",
"B$	c #8A520D",
"C$	c #DEAE09",
"D$	c #CF9C18",
"E$	c #876324",
"F$	c #09080B",
"G$	c #000002",
"H$	c #161218",
"I$	c #86706F",
"J$	c #BE9D80",
"K$	c #E0AB50",
"L$	c #913903",
"M$	c #BD6F12",
"N$	c #B0480C",
"O$	c #C97A0F",
"P$	c #B86909",
"Q$	c #B8660C",
"R$	c #B66811",
"S$	c #A07025",
"T$	c #A67C2F",
"U$	c #DFB027",
"V$	c #F2BC15",
"W$	c #F1BE11",
"X$	c #D8A72B",
"Y$	c #B6886F",
"Z$	c #DBB8A4",
"`$	c #F0D1BE",
" %	c #EFD2C1",
".%	c #DABDB3",
"+%	c #AF8C7E",
"@%	c #8C5D3E",
"#%	c #734120",
"$%	c #62230E",
"%%	c #B77D0D",
"&%	c #EDBF13",
"*%	c #E0B525",
"=%	c #302715",
"-%	c #00000A",
";%	c #020109",
">%	c #0F0711",
",%	c #032115",
"'%	c #475840",
")%	c #A37426",
"!%	c #CB8410",
"~%	c #C67B06",
"{%	c #BF7614",
"]%	c #D18E10",
"^%	c #BE640C",
"/%	c #BE600F",
"(%	c #9E4109",
"_%	c #BF944F",
":%	c #CDA74A",
"<%	c #F2C324",
"[%	c #F1C115",
"}%	c #F9C814",
"|%	c #CF961B",
"1%	c #B2816C",
"2%	c #B58F77",
"3%	c #A37D59",
"4%	c #BD9879",
"5%	c #CAA276",
"6%	c #DDBC9C",
"7%	c #EAC9B6",
"8%	c #D0AE96",
"9%	c #D6AA2A",
"0%	c #E7B80E",
"a%	c #BD8A1D",
"b%	c #644C21",
"c%	c #000007",
"d%	c #04040E",
"e%	c #0E0813",
"f%	c #161C1E",
"g%	c #036B2F",
"h%	c #006A33",
"i%	c #072417",
"j%	c #825A17",
"k%	c #CD9016",
"l%	c #BB6707",
"m%	c #BD6A07",
"n%	c #BB6210",
"o%	c #C87611",
"p%	c #C57A0F",
"q%	c #FBD223",
"r%	c #DC932B",
"s%	c #DC7B1A",
"t%	c #FAA91B",
"u%	c #F3A717",
"v%	c #D09E33",
"w%	c #D3ADA0",
"x%	c #EECDC0",
"y%	c #E9C9B9",
"z%	c #AD844D",
"A%	c #976100",
"B%	c #9F6B08",
"C%	c #A56D27",
"D%	c #CA9B2F",
"E%	c #FAD11C",
"F%	c #F8C717",
"G%	c #BB9625",
"H%	c #120C10",
"I%	c #060309",
"J%	c #312129",
"K%	c #154230",
"L%	c #007C3B",
"M%	c #007E39",
"N%	c #1E3A21",
"O%	c #870000",
"P%	c #80190F",
"Q%	c #AB6C17",
"R%	c #D89815",
"S%	c #B15A11",
"T%	c #AD5108",
"U%	c #C0670C",
"V%	c #E99F12",
"W%	c #E63910",
"X%	c #F40505",
"Y%	c #FB0E04",
"Z%	c #D50704",
"`%	c #984D45",
" &	c #D6B2A9",
".&	c #ECC8B9",
"+&	c #F2D5C8",
"@&	c #CEAA81",
"#&	c #B68933",
"$&	c #B68524",
"%&	c #AD760B",
"&&	c #EAB910",
"*&	c #DCA914",
"=&	c #C7991E",
"-&	c #3D301C",
";&	c #00000D",
">&	c #050510",
",&	c #211B1D",
"'&	c #503A3F",
")&	c #19452E",
"!&	c #007030",
"~&	c #006F33",
"{&	c #7F130D",
"]&	c #E90000",
"^&	c #C90002",
"/&	c #8F0003",
"(&	c #892F0F",
"_&	c #BE731A",
":&	c #C2700C",
"<&	c #C17206",
"[&	c #D06319",
"}&	c #E30106",
"|&	c #F70702",
"1&	c #FA0902",
"2&	c #D60100",
"3&	c #A5534E",
"4&	c #D4B0A8",
"5&	c #EECEC0",
"6&	c #D2AD82",
"7&	c #C59555",
"8&	c #F6D3A6",
"9&	c #F7DAB3",
"0&	c #F3C641",
"a&	c #F8C916",
"b&	c #E8B717",
"c&	c #7F6324",
"d&	c #362928",
"e&	c #A18882",
"f&	c #B39892",
"g&	c #2E322F",
"h&	c #481910",
"i&	c #D70304",
"j&	c #DF0000",
"k&	c #E00100",
"l&	c #C30102",
"m&	c #6D0002",
"n&	c #6A1009",
"o&	c #9E5A14",
"p&	c #C98412",
"q&	c #D8961E",
"r&	c #D5150C",
"s&	c #F50601",
"t&	c #E01108",
"u&	c #CA887D",
"v&	c #DEBAAF",
"w&	c #F4D3C6",
"x&	c #C9A478",
"y&	c #D6A133",
"z&	c #FBCF41",
"A&	c #F9D564",
"B&	c #F0BF1C",
"C&	c #E8B618",
"D&	c #DEB01E",
"E&	c #563715",
"F&	c #241009",
"G&	c #050008",
"H&	c #554A49",
"I&	c #B19487",
"J&	c #A88270",
"K&	c #B28D7C",
"L&	c #AD6F70",
"M&	c #C60000",
"N&	c #E50002",
"O&	c #E00102",
"P&	c #D50203",
"Q&	c #950308",
"R&	c #760004",
"S&	c #620002",
"T&	c #690006",
"U&	c #B6230B",
"V&	c #CC6814",
"W&	c #EA1A07",
"X&	c #F40401",
"Y&	c #F50500",
"Z&	c #E31109",
"`&	c #D07568",
" *	c #E4B6A8",
".*	c #E8C6AD",
"+*	c #D6AA5E",
"@*	c #F7C322",
"#*	c #F8C720",
"$*	c #EEBA13",
"%*	c #C18B12",
"&*	c #B98414",
"**	c #865B0E",
"=*	c #4E2000",
"-*	c #612F07",
";*	c #A2897C",
">*	c #B3927E",
",*	c #A07660",
"'*	c #A47B64",
")*	c #A07D66",
"!*	c #C59B88",
"~*	c #CF2828",
"{*	c #E00000",
"]*	c #E30102",
"^*	c #912426",
"/*	c #8E2C30",
"(*	c #9C0909",
"_*	c #AE0202",
":*	c #C66016",
"<*	c #DE0107",
"[*	c #F70602",
"}*	c #F80602",
"|*	c #E30100",
"1*	c #B52826",
"2*	c #EBBBAD",
"3*	c #F0D2BD",
"4*	c #ECC06B",
"5*	c #EFBB38",
"6*	c #CC941E",
"7*	c #B2750D",
"8*	c #995E03",
"9*	c #9D6407",
"0*	c #9A6E48",
"a*	c #8F6448",
"b*	c #B28453",
"c*	c #DFC1A1",
"d*	c #A07862",
"e*	c #BE9883",
"f*	c #A67C67",
"g*	c #BE9482",
"h*	c #BE9C88",
"i*	c #B6817B",
"j*	c #960708",
"k*	c #CE0203",
"l*	c #AC1211",
"m*	c #B87F7C",
"n*	c #CF7170",
"o*	c #BD0A09",
"p*	c #710101",
"q*	c #630205",
"r*	c #E7AF15",
"s*	c #AC2B07",
"t*	c #980105",
"u*	c #9C0304",
"v*	c #A00000",
"w*	c #AB4B49",
"x*	c #AA8677",
"y*	c #B38B7B",
"z*	c #D5B1A2",
"A*	c #EFCCB3",
"B*	c #EBC1A0",
"C*	c #BA8B57",
"D*	c #8B4801",
"E*	c #925109",
"F*	c #E7C5A5",
"G*	c #F6DCCE",
"H*	c #EFD2C4",
"I*	c #ECD1BF",
"J*	c #EFD6C4",
"K*	c #DFBFB3",
"L*	c #B99682",
"M*	c #D6AF9C",
"N*	c #E2C1AA",
"O*	c #DEC1B8",
"P*	c #AE3234",
"Q*	c #E30807",
"R*	c #E00C06",
"S*	c #D43E3B",
"T*	c #B91F1D",
"U*	c #640001",
"V*	c #8F0303",
"W*	c #830404",
"X*	c #DAA30A",
"Y*	c #92500C",
"Z*	c #450004",
"`*	c #430003",
" =	c #610406",
".=	c #AB6760",
"+=	c #946F59",
"@=	c #9F755E",
"#=	c #9A6D5C",
"$=	c #9D715D",
"%=	c #BD9E90",
"&=	c #A96449",
"*=	c #BF7019",
"==	c #BA821F",
"-=	c #D9B69C",
";=	c #C8B0AC",
">=	c #C9B0A7",
",=	c #DEC1B9",
"'=	c #CDB2A8",
")=	c #C5A89F",
"!=	c #B38F7E",
"~=	c #D1B4A4",
"{=	c #ECB4AB",
"]=	c #E04947",
"^=	c #CD0B0A",
"/=	c #E50806",
"(=	c #D90202",
"_=	c #D40000",
":=	c #A60102",
"<=	c #740205",
"[=	c #860404",
"}=	c #8D0C0C",
"|=	c #BF8509",
"1=	c #964910",
"2=	c #6F0105",
"3=	c #550000",
"4=	c #6F1213",
"5=	c #B07E71",
"6=	c #B18E7F",
"7=	c #AB836F",
"8=	c #BE9484",
"9=	c #A7826D",
"0=	c #A8866E",
"a=	c #9D2720",
"b=	c #C6521D",
"c=	c #844520",
"d=	c #CEA9A1",
"e=	c #BCA39C",
"f=	c #C7ADA4",
"g=	c #DCC2B6",
"h=	c #AD9387",
"i=	c #C4A8A0",
"j=	c #DA9D93",
"k=	c #B15A5B",
"l=	c #B01112",
"m=	c #ED0000",
"n=	c #E20303",
"o=	c #D40001",
"p=	c #D30103",
"q=	c #D90101",
"r=	c #9B0305",
"s=	c #910608",
"t=	c #920303",
"u=	c #810809",
"v=	c #DFAD0F",
"w=	c #775A20",
"x=	c #35050D",
"y=	c #3F0001",
"z=	c #802F2E",
"A=	c #C89F8D",
"B=	c #D0AB98",
"C=	c #D8B3A1",
"D=	c #B38876",
"E=	c #BE9A87",
"F=	c #A16C63",
"G=	c #9D1617",
"H=	c #B20A04",
"I=	c #B77932",
"J=	c #DCBFAA",
"K=	c #EED3CA",
"L=	c #E7CBBE",
"M=	c #E8CEBD",
"N=	c #EBD3C5",
"O=	c #CFABA5",
"P=	c #B21316",
"Q=	c #E10000",
"R=	c #D50101",
"S=	c #D10101",
"T=	c #D50202",
"U=	c #8B0505",
"V=	c #2B040C",
"W=	c #27181F",
"X=	c #860709",
"Y=	c #B40100",
"Z=	c #A56E1C",
"`=	c #213421",
" -	c #013D2B",
".-	c #001810",
"+-	c #6D5E56",
"@-	c #E2BCAD",
"#-	c #EFCAB8",
"$-	c #C8A390",
"%-	c #AE866D",
"&-	c #C39F90",
"*-	c #9C5958",
"=-	c #A80A0B",
"--	c #D50001",
";-	c #C94726",
">-	c #D5BBA2",
",-	c #B79C98",
"'-	c #C6A9A2",
")-	c #D7BAB1",
"!-	c #BCA29C",
"~-	c #9D817D",
"{-	c #9D0000",
"]-	c #DC0002",
"^-	c #D30002",
"/-	c #D30101",
"(-	c #D40201",
"_-	c #AE0003",
":-	c #490004",
"<-	c #06040F",
"[-	c #00050B",
"}-	c #00030D",
"|-	c #180408",
"1-	c #920C11",
"2-	c #622613",
"3-	c #043B1D",
"4-	c #07632F",
"5-	c #084121",
"6-	c #07291A",
"7-	c #2D3933",
"8-	c #74645E",
"9-	c #BE9990",
"0-	c #E5C1AE",
"a-	c #D0B2A6",
"b-	c #905A5C",
"c-	c #990707",
"d-	c #D20000",
"e-	c #B91412",
"f-	c #D9B7AB",
"g-	c #C1AA9E",
"h-	c #D1B6AA",
"i-	c #DAC0B2",
"j-	c #BFA598",
"k-	c #908583",
"l-	c #480100",
"m-	c #CE0204",
"n-	c #D50002",
"o-	c #C50002",
"p-	c #8C0104",
"q-	c #471516",
"r-	c #231C1D",
"s-	c #04010A",
"t-	c #04020D",
"u-	c #03020B",
"v-	c #000209",
"w-	c #171A22",
"x-	c #6C2416",
"y-	c #016B32",
"z-	c #07532A",
"A-	c #065226",
"B-	c #005224",
"C-	c #4F594C",
"D-	c #A58F8B",
"E-	c #AB8B84",
"F-	c #BB9A8B",
"G-	c #BFA092",
"H-	c #BDA294",
"I-	c #9A575B",
"J-	c #530513",
"K-	c #51252E",
"L-	c #DEC3B4",
"M-	c #E9D1C3",
"N-	c #DEC5B8",
"O-	c #E6CBBC",
"P-	c #F3D9C9",
"Q-	c #998A8C",
"R-	c #030112",
"S-	c #860305",
"T-	c #AE0F0B",
"U-	c #72211C",
"V-	c #562E24",
"W-	c #66412F",
"X-	c #795844",
"Y-	c #2B1F21",
"Z-	c #00010C",
"`-	c #02020A",
" ;	c #000003",
". + @ # $ % & * = - ; > , ' ) ! ~ { ] ^ / ( _ : < [ } | 1 2 3 4 ",
"5 6 7 8 9 0 a b c d e f g h i j k l m n o p q r s t u v w x y z ",
"A B C D E F G H I J K L M N O P Q R S T U V W X Y Z `  ...+.@.#.",
"$.%.&.*.=.-.;.>.,.'.).!.~.{.].^./.(._.:.<.[.}.|.1.2.3.4.5.6.7.8.",
"9.0.a.b.c.d.e.f.g.h.i.j.k.l.m.n.o.p.q.r.s.t.u.v.w.x.y.z.A.B.C.D.",
"E.F.G.H.I.J.K.L.M.N.O.P.Q.R.S.T.U.V.W.X.Y.Z.`. +.+++@+#+$+%+&+*+",
"=+-+;+>+,+'+)+!+~+{+]+^+/+(+_+:+<+[+}+|+1+2+3+4+5+6+++7+8+9+0+a+",
"b+c+d+e+f+g+h+i+j+k+l+m+n+o+p+q+..r+s+t+u+v+w+x+y+z+A+B+C+D+E+F+",
"G+H+I+J+K+L+M+N+O+P+Q+R+S+T+U+V+W+X+Y+Z+`+ @.@+@@@#@$@%@&@*@=@-@",
";@>@,@'@)@!@~@{@]@^@/@(@_@:@<@[@}@|@1@2@3@4@5@6@7@8@9@0@a@b@c@d@",
"e@f@g@h@i@j@k@l@m@n@o@p@q@r@s@t@u@v@w@x@y@z@A@B@C@D@E@F@G@H@I@J@",
"K@L@M@N@O@P@Q@R@S@T@U@V@W@X@Y@Z@`@ #.#+#@###$#%#&#*#=#-#;#>#,#'#",
")#!#~#{#]#^#/#(#_#:#<#[#}#|#1#2#3#4#5#6#7#8#9#0#a#b#c#d#e#f#g#h#",
"i#j#k#l#m#n#o#p#q#r#s#t#u#v#w#x#y#z#A#B#C#D#E#F#G#H#I#J#K#L#M#N#",
"O#P#Q#R#S#T#U#V#W#X#Y#Z#`# $.$+$@$#$$$%$&$*$=$-$;$>$,$'$)$!$~${$",
"]$^$/$($_$:$<$[$}$|$1$2$3$4$5$6$7$8$9$0$a$b$c$d$e$f$g$h$i$j$k$l$",
"m$n$o$p$q$r$s$t$u$v$w$x$y$z$A$B$C$D$E$F$G$H$I$J$K$L$M$N$O$P$Q$R$",
"S$T$U$V$W$X$Y$Z$`$ %.%+%@%#%$%%%&%*%=%-%;%>%,%'%)%!%~%{%]%^%/%(%",
"_%:%<%[%}%|%1%2%3%4%5%6%7%8%9%0%a%b%c%d%e%f%g%h%i%j%k%l%m%n%o%p%",
"q%r%s%t%u%v%w%x%y%z%A%B%C%D%E%F%G%H%9.I%J%K%L%M%N%O%P%Q%R%S%T%U%",
"V%W%X%Y%Z%`% &.&+&@&#&$&%&&&*&=&-&;&>&,&'&)&!&~&{&]&^&/&(&_&:&<&",
"[&}&|&1&2&3&4&5&6&7&8&9&0&a&b&c&-%-%c%d&e&f&g&h&i&j&k&l&m&n&o&p&",
"q&r&s&s&t&u&v&w&x&y&z&A&B&C&D&E&F&G&H&I&J&K&L&M&N&O&P&Q&R&S&T&U&",
"V&W&X&Y&Z&`& *.*+*@*#*$*%*&***=*-*;*>*,*'*)*!*~*{*]*I ^*/*(*_*m&",
":*<*[*}*|*1*2*3*4*5*6*7*8*9*0*a*b*c*d*e*f*g*h*i*j*k*l*m*n*o*p*q*",
"r*s*t*u*v*w*x*y*z*A*B*C*D*E*F*G*H*I*J*K*L*M*N*O*P*Q*R*S*T*U*V*W*",
"X*Y*Z*`* =.=+=@=#=$=%=&=*===-=;=>=,='=)=!=~={=]=^=/=(=_=:=<=[=}=",
"|=1=2=3=4=5=6=7=8=9=0=a=b=c=d=e=f=g=h=i=j=k=l=m=n=o=p=q=r=s=t=u=",
"v=w=x=y=z=A=B=C=D=E=F=G=H=I=J=K=L=M=N=O=P=Q=k&R=S=T=N.U=V=W=X=Y=",
"Z=`= -.-+-@-#-$-%-&-*-=---;->-,-'-)-!-~-{-]-^-/-(-_-:-<-[-}-|-1-",
"2-3-4-5-6-7-8-9-0-a-b-c-d-e-f-g-h-i-j-k-l-m-n-o-p-q-r-s-t-u-v-w-",
"x-y-z-A-B-C-D-E-F-G-H-I-J-K-L-M-N-O-P-Q-R-S-T-U-V-W-X-Y-Z-u-`- ;"};
