/* XPM */
static char * C:\ie\ark\programs\maya\ui\icons\snapAlignKeyer_xpm[] = {
"32 32 436 2",
"  	c None",
". 	c #EEFAEF",
"+ 	c #F2FDF3",
"@ 	c #F9FFFA",
"# 	c #F2FDF4",
"$ 	c #F2FCF3",
"% 	c #F3FDF4",
"& 	c #F1FDF2",
"* 	c #EFFBF0",
"= 	c #ACB1AB",
"- 	c #F3FFF4",
"; 	c #F1FDF1",
"> 	c #F1FEF2",
", 	c #FAFFFB",
"' 	c #F2FFF3",
") 	c #F0FDF1",
"! 	c #F7FFF9",
"~ 	c #D4DDD5",
"{ 	c #101E10",
"] 	c #B7BFB7",
"^ 	c #FDFFFE",
"/ 	c #F7FFF8",
"( 	c #FBFFFC",
"_ 	c #AEB4AF",
": 	c #D7E2D7",
"< 	c #F5FEF6",
"[ 	c #F9FFFB",
"} 	c #FFFFFF",
"| 	c #8B8C8B",
"1 	c #009500",
"2 	c #336E34",
"3 	c #EFEDEF",
"4 	c #F4FFF5",
"5 	c #E1DAE2",
"6 	c #617660",
"7 	c #294028",
"8 	c #E9F2EA",
"9 	c #EFF9F0",
"0 	c #A7B0A7",
"a 	c #D1D5D2",
"b 	c #FBFDFC",
"c 	c #FDFFFF",
"d 	c #F6FFF7",
"e 	c #F2FFF4",
"f 	c #F3F7F3",
"g 	c #335633",
"h 	c #00FC00",
"i 	c #00B900",
"j 	c #848884",
"k 	c #FAF8FA",
"l 	c #9D9F9C",
"m 	c #1C701D",
"n 	c #00AD00",
"o 	c #7FA180",
"p 	c #F1FEF1",
"q 	c #FCFFFC",
"r 	c #919491",
"s 	c #0B470B",
"t 	c #4F8950",
"u 	c #A0A3A0",
"v 	c #E1DBE1",
"w 	c #FEFFFF",
"x 	c #BFBBC0",
"y 	c #028302",
"z 	c #45A94C",
"A 	c #25CF2B",
"B 	c #0D890E",
"C 	c #D7CFD8",
"D 	c #D3CCD3",
"E 	c #437D43",
"F 	c #0C8C0F",
"G 	c #02F309",
"H 	c #07B409",
"I 	c #C8C6C8",
"J 	c #F4FFF6",
"K 	c #F2FEF3",
"L 	c #F8F9F9",
"M 	c #417645",
"N 	c #00DC00",
"O 	c #00B601",
"P 	c #168518",
"Q 	c #609662",
"R 	c #BDBBBE",
"S 	c #696C69",
"T 	c #00CD02",
"U 	c #933E9B",
"V 	c #8E4195",
"W 	c #01EB07",
"X 	c #25602D",
"Y 	c #107E1D",
"Z 	c #398F3F",
"` 	c #81598B",
" .	c #00F40B",
"..	c #308940",
"+.	c #F5F5FF",
"@.	c #FAFFFF",
"#.	c #F5FFF6",
"$.	c #DFEBE4",
"%.	c #E2EEEF",
"&.	c #F2FEFB",
"*.	c #EEFBEF",
"=.	c #F5FFF8",
"-.	c #F3F8FF",
";.	c #9A9292",
">.	c #047B03",
",.	c #10FD18",
"'.	c #5A6B6D",
").	c #208727",
"!.	c #069C04",
"~.	c #008906",
"{.	c #14C11B",
"].	c #971497",
"^.	c #AA00BB",
"/.	c #428A41",
"(.	c #25BE00",
"_.	c #68A91D",
":.	c #A609A7",
"<.	c #6C506C",
"[.	c #3CCD00",
"}.	c #929F32",
"|.	c #D0D170",
"1.	c #C4CBB1",
"2.	c #A4AC94",
"3.	c #D0D11A",
"4.	c #D0D12C",
"5.	c #8E9545",
"6.	c #6C7473",
"7.	c #CBD4CC",
"8.	c #F6FEF7",
"9.	c #F7FFFB",
"0.	c #D9E3E0",
"a.	c #BEC250",
"b.	c #E3E007",
"c.	c #9AA407",
"d.	c #05AB09",
"e.	c #A7982B",
"f.	c #DBBB19",
"g.	c #7E5B52",
"h.	c #80A026",
"i.	c #CCD803",
"j.	c #905E3D",
"k.	c #AF8D2E",
"l.	c #E3D608",
"m.	c #FCF401",
"n.	c #EBDA0B",
"o.	c #7F3758",
"p.	c #DCDA06",
"q.	c #FFF900",
"r.	c #FFFF00",
"s.	c #FDFD00",
"t.	c #98AD05",
"u.	c #49820B",
"v.	c #FCFB00",
"w.	c #80883C",
"x.	c #BBC6C6",
"y.	c #D8E3E3",
"z.	c #C3C535",
"A.	c #E5E400",
"B.	c #2C4505",
"C.	c #F9FD00",
"D.	c #95435C",
"E.	c #DCBA20",
"F.	c #895741",
"G.	c #F2F103",
"H.	c #FFFF02",
"I.	c #D4C218",
"J.	c #8E534B",
"K.	c #95C50A",
"L.	c #85B80C",
"M.	c #CACB1F",
"N.	c #DCE8E8",
"O.	c #FCFFFE",
"P.	c #9FA49F",
"Q.	c #647664",
"R.	c #458651",
"S.	c #989E27",
"T.	c #FFFE00",
"U.	c #F2E805",
"V.	c #FFFC00",
"W.	c #C1BE10",
"X.	c #618020",
"Y.	c #FFFE01",
"Z.	c #91623E",
"`.	c #E4DA0D",
" +	c #E8E108",
".+	c #876034",
"++	c #E2E107",
"@+	c #CAB120",
"#+	c #9E6F3B",
"$+	c #946E32",
"%+	c #A8882C",
"&+	c #FFFB00",
"*+	c #407F0D",
"=+	c #C4D904",
"-+	c #FBFA00",
";+	c #BFC585",
">+	c #F5FFFF",
",+	c #CED5CF",
"'+	c #7F9088",
")+	c #4A811C",
"!+	c #F6F800",
"~+	c #BAD605",
"{+	c #1EA20E",
"]+	c #5D7F25",
"^+	c #7B1592",
"/+	c #A96155",
"(+	c #94841A",
"_+	c #F3F301",
":+	c #CBBB16",
"<+	c #A99122",
"[+	c #BABA08",
"}+	c #C1A722",
"|+	c #B29328",
"1+	c #BEB314",
"2+	c #F5F700",
"3+	c #6EB000",
"4+	c #2A511B",
"5+	c #FAF601",
"6+	c #E2DF15",
"7+	c #E0E8E4",
"8+	c #F8FFFB",
"9+	c #F0FEF2",
"0+	c #F8FFFA",
"a+	c #EEFAFC",
"b+	c #D4CE35",
"c+	c #CADA04",
"d+	c #9AD205",
"e+	c #B3CD07",
"f+	c #7B9E22",
"g+	c #8DA516",
"h+	c #BEBE07",
"i+	c #FEFF00",
"j+	c #A29911",
"k+	c #CECA09",
"l+	c #F1F200",
"m+	c #A19E08",
"n+	c #B5A31B",
"o+	c #BEB214",
"p+	c #B56C44",
"q+	c #614381",
"r+	c #7AA921",
"s+	c #94A91E",
"t+	c #9FB7AE",
"u+	c #EEEDEE",
"v+	c #F5FFF7",
"w+	c #D5E0DD",
"x+	c #CFCF08",
"y+	c #FFFF03",
"z+	c #CBD100",
"A+	c #AFB905",
"B+	c #FBFB03",
"C+	c #FFFF01",
"D+	c #999709",
"E+	c #F6F701",
"F+	c #CFCC08",
"G+	c #A7A20D",
"H+	c #B0AC0B",
"I+	c #D7D405",
"J+	c #EDF001",
"K+	c #7D7939",
"L+	c #724788",
"M+	c #6F6183",
"N+	c #70A125",
"O+	c #A0DA05",
"P+	c #1FCB00",
"Q+	c #00CC00",
"R+	c #1B991D",
"S+	c #6C866C",
"T+	c #BCBFBC",
"U+	c #F0F9F1",
"V+	c #EEF8F4",
"W+	c #C3CB8C",
"X+	c #ACAE4A",
"Y+	c #8A8D52",
"Z+	c #75750F",
"`+	c #B29C15",
" @	c #C9C408",
".@	c #F8F702",
"+@	c #F7F403",
"@@	c #C2C009",
"#@	c #F6F601",
"$@	c #F4F402",
"%@	c #C4C306",
"&@	c #F7F201",
"*@	c #BBCE0A",
"=@	c #00E110",
"-@	c #01D807",
";@	c #00AB09",
">@	c #078805",
",@	c #0D6C10",
"'@	c #32833A",
")@	c #528F52",
"!@	c #6B966B",
"~@	c #7E8F7F",
"{@	c #A3A9A3",
"]@	c #E9F4EB",
"^@	c #DCE8E5",
"/@	c #B2B335",
"(@	c #AFB018",
"_@	c #E6E600",
":@	c #E3F000",
"<@	c #43811B",
"[@	c #EDE706",
"}@	c #C9D204",
"|@	c #ACBB08",
"1@	c #FEFD01",
"2@	c #F8F705",
"3@	c #E6E307",
"4@	c #F6F503",
"5@	c #EDEB06",
"6@	c #CD9234",
"7@	c #34A04A",
"8@	c #05B109",
"9@	c #7F6B38",
"0@	c #DCCF02",
"a@	c #D4C805",
"b@	c #D0CFC9",
"c@	c #F3FBF4",
"d@	c #A5AEB0",
"e@	c #6D712A",
"f@	c #E6E500",
"g@	c #527121",
"h@	c #3A861C",
"i@	c #B9DF06",
"j@	c #45B207",
"k@	c #FBF300",
"l@	c #F7E805",
"m@	c #F6EB03",
"n@	c #833F4F",
"o@	c #D4CF08",
"p@	c #DBDD04",
"q@	c #D3DA06",
"r@	c #D7E700",
"s@	c #878539",
"t@	c #922AA5",
"u@	c #11C51D",
"v@	c #BDCD00",
"w@	c #C8CA27",
"x@	c #DCE7DF",
"y@	c #D2DCD2",
"z@	c #7F8486",
"A@	c #969B51",
"B@	c #D4D521",
"C@	c #C5C73B",
"D@	c #C2C9A6",
"E@	c #DEE2F0",
"F@	c #C6C381",
"G@	c #BBB704",
"H@	c #4BC404",
"I@	c #557657",
"J@	c #895B5C",
"K@	c #439E10",
"L@	c #4E9C00",
"M@	c #2DC70D",
"N@	c #7E3182",
"O@	c #9D2D76",
"P@	c #1BC31A",
"Q@	c #19680D",
"R@	c #174B0F",
"S@	c #00A700",
"T@	c #1AC620",
"U@	c #15E520",
"V@	c #2CD101",
"W@	c #9AA457",
"X@	c #E0E5E1",
"Y@	c #F5FFF9",
"Z@	c #F2FFF2",
"`@	c #F2FFFA",
" #	c #DEEAE9",
".#	c #E6F2F3",
"+#	c #F6FFFE",
"@#	c #E0E3DB",
"##	c #225229",
"$#	c #00EC06",
"%#	c #47AA50",
"&#	c #06BC14",
"*#	c #1D8926",
"=#	c #384345",
"-#	c #00B000",
";#	c #3CBF45",
">#	c #8A3D9B",
",#	c #00E402",
"'#	c #6F9373",
")#	c #D3CED7",
"!#	c #2A602A",
"~#	c #007800",
"{#	c #00C200",
"]#	c #2BA939",
"^#	c #F3F5F6",
"/#	c #C6C1C7",
"(#	c #078A0A",
"_#	c #00F700",
":#	c #009F00",
"<#	c #5F815E",
"[#	c #E3DBE4",
"}#	c #E6E5E6",
"|#	c #1C391C",
"1#	c #00E704",
"2#	c #1BE122",
"3#	c #06A807",
"4#	c #C5C2C5",
"5#	c #EEF1F0",
"6#	c #BAB3BA",
"7#	c #6A726A",
"8#	c #1A451B",
"9#	c #838C83",
"0#	c #FBFEFC",
"a#	c #768276",
"b#	c #008300",
"c#	c #2F742F",
"d#	c #B6B0B6",
"e#	c #968F97",
"f#	c #006100",
"g#	c #00FF00",
"h#	c #397D3B",
"i#	c #F6F6F6",
"j#	c #E2E8E4",
"k#	c #B9C2B9",
"l#	c #EDF8EE",
"m#	c #E6F0E6",
"n#	c #2B332B",
"o#	c #788178",
"p#	c #EEE9EE",
"q#	c #F1FFF2",
"r#	c #F6FBF7",
"s#	c #3F433F",
"t#	c #007600",
"u#	c #92A992",
"v#	c #DAE6DB",
"w#	c #C2CDC3",
"x#	c #C1C9C2",
"y#	c #1A171A",
"z#	c #D8E2D8",
"A#	c #F0FEF1",
"B#	c #C0C9C1",
"C#	c #EFFCF0",
". . . . . . . . . . . . . . . . . . . . . . . . . . . . . . . . ",
". . . . . . . . . . . . . . . . . . . . . . . . . . . . . . . . ",
"+ + + + + + + + + + + + + + @ # $ + + + + + + + + + + + + + + % ",
"& & & & & & & & & & & & & * = - & & & & & ; > , ' ) & & & & & + ",
"> & & & & & & & & & & & ! ~ { ] ^ ) & & ) / ( _ : < & & & & & + ",
"> > > & ) [ / > & & > > } | 1 2 3 4 & ' } 5 6 7 8 4 > & & & & + ",
"> > > ' 9 0 a b c d > e f g h i j } , k l m n o } > > > & & & + ",
"p > > > q r s t u v w } x y z A B C D E F G H I @ ' J - K > & + ",
"> > > > - L M N O P Q R S T U V W X Y Z `  ...+.@.#.$.%.&.@ *.+ ",
"> > > p =.-.;.>.,.'.).!.~.{.].^./.(._.:.<.[.}.|.1.2.3.4.5.6.7.8.",
"> > > 9.0.a.b.c.d.e.f.g.h.i.j.k.l.m.n.o.p.q.r.s.t.u.r.v.w.x.d K ",
", } c y.z.r.r.A.B.C.r.D.E.r.F.G.H.r.I.J.r.r.G.r.K.L.r.M.N.O.> K ",
"P.Q.R.S.T.U.V.W.X.Y.r.Z.`. +.+r.++r.@+#+r.$+%+&+*+=+-+;+>+> > K ",
",+'+)+!+~+{+]+^+/+r.r.(+_+:+<+r.[+r.}+|+r.1+2+3+4+5+6+7+8+9+> K ",
"0+a+b+r.c+d+e+f+g+r.r.h+i+j+k+l+m+r.n+o+r.r.p+q+r+r.s+t+u+} @ ' ",
"v+w+x+r.r.y+r.z+A+r.r.B+C+D+E+F+G+r.H+I+J+K+L+M+N+O+P+Q+R+S+T+U+",
"K V+W+X+Y+Z+r.`+ @.@+@r..@@@r.#@$@r.%@&@*@=@-@;@>@,@'@)@!@~@{@]@",
"> } ^@/@(@_@:@<@[@}@|@r.1@2@r.3@4@r.5@r.6@7@8@9@0@a@b@} } } ( - ",
"c@d@e@r.r.f@g@h@r.i@j@k@l@r.m@n@o@p@q@r@s@t@u@v@r.w@x@=.> > & K ",
"y@z@A@B@C@D@E@F@G@H@I@J@K@L@M@N@O@P@Q@R@S@T@U@V@W@X@Y@p > > > K ",
"Z@w `@ #.#+#@ @###$#%#&#*#=#-#;#>#,#'#)#j !#~#{#]#^#4 > > > > K ",
"> > ' 4 - > , /#(#_#:#<#[#}#|#1#2#3#4#} } 5#6#7#8#9#0#> > > > K ",
"> > > & > > } a#b#c#d#w / } e#f#g#h#i#' > - ( } j#k#l#' > > & K ",
"> > & > & 4 m#n#o#p#^ q#> - r#s#t#u#} > > > > > #.@ > > > > > K ",
"> > > > & J v#w#w #.p > > p ( x#y#z#/ > > > > > > > > > > > > K ",
"> > > > > A#- 0+> > > > > > > #.B#C#> > > > > > > & > > > > > K ",
". . . . . . . . . . . . . . . . . . . . . . . . . . . . . . . . ",
". . . . . . . . . . . . . . . . . . . . . . . . . . . . . . . . ",
". . . . . . . . . . . . . . . . . . . . . . . . . . . . . . . . ",
". . . . . . . . . . . . . . . . . . . . . . . . . . . . . . . . ",
". . . . . . . . . . . . . . . . . . . . . . . . . . . . . . . . ",
". . . . . . . . . . . . . . . . . . . . . . . . . . . . . . . . "};
