/* XPM */
static char * C:\ie\ark\Maya\ui\icons\submit_xpm[] = {
"32 32 30 1",
" 	c None",
".	c #404040",
"+	c #C8C8C8",
"@	c #444444",
"#	c #C70606",
"$	c #C9C9C9",
"%	c #0049CF",
"&	c #00CF1D",
"*	c #FFFFFF",
"=	c #6E6E6E",
"-	c #838383",
";	c #F4F4F4",
">	c #D5D5D5",
",	c #214469",
"'	c #909090",
")	c #DADADA",
"!	c #84A4C5",
"~	c #DDDDDD",
"{	c #3267A1",
"]	c #E1E1E1",
"^	c #E5E5E5",
"/	c #EAEAEA",
"(	c #EDEDED",
"_	c #737373",
":	c #F2F2F2",
"<	c #E8E8E8",
"[	c #F6F6F6",
"}	c #FBFBFB",
"|	c #767676",
"1	c #C60000",
"                                ",
"                                ",
"                                ",
"                                ",
"                                ",
"              ...........       ",
"              .+++++++++.       ",
"              @#$$++++%&.       ",
"              *****......       ",
"       =.........-*$++++.       ",
"       .;;;;;;;;;.*$++%&.       ",
"       .>,,,,>''>.*@.....       ",
"       .),!!,)'').*$++++.       ",
"       .~,{{,~''~.*$++%&.       ",
"       .],{{,]''].*@.....       ",
"       .^,,,,^''^.*$++++.       ",
"       ./////////.*$++%&.       ",
"       .((_((((((.*@.....       ",
"       .:.<....::.*$++++.       ",
"       .[[_[[[[[[.*$++%&.       ",
"       .}}}}}}}}}.*@.....       ",
"       |.........|*$++++.       ",
"              *****+++%&.       ",
"              .@@@.......       ",
"              .+++++++++.       ",
"              .1++++++%&.       ",
"              ...........       ",
"                                ",
"                                ",
"                                ",
"                                ",
"                                "};
